<svg xmlns="http://www.w3.org/2000/svg" xmlns:xlink="http://www.w3.org/1999/xlink" viewBox="0 0 269.45 122.13"><defs><style>.cls-1{fill:none;}.cls-2{fill:#4c256e;}.cls-3{clip-path:url(#clip-path);}.cls-4{fill:url(#linear-gradient);}.cls-5{clip-path:url(#clip-path-2);}.cls-6{fill:url(#linear-gradient-2);}</style><clipPath id="clip-path"><path class="cls-1" d="M165.06,1.56c-33.15,1.29-51.52,33.77-57.45,49.34h0c2-14.52,9.73-31.18,17.19-38.24v0c-.67-5.87-5.35-10.4-11-10.24-5.9.16-10.5,5.65-10.5,12,0,0,0,47.48.07,57.4,0,0,.07,1.44.19,2.13.92,5.42,5.29,9.53,10.56,9.53,5.85,0,10.59-5.07,10.74-11.37,0,0,0-17.47,0-17.46,11.75,2.86,21.71,10.88,27.77,21.73,0,0,3.19,7.1,10.47,7.09,6.35,0,11.59-5.59,11.5-12.47C174.47,57.5,145.44,36.12,122,54a43.66,43.66,0,0,0-7.55,7.08c1.16-2.36,14.15-27.93,53.14-34.67v0c5.79-.93,10.18-6.51,9.81-13.13A12.19,12.19,0,0,0,165.5,1.55h-.44"/></clipPath><linearGradient id="linear-gradient" x1="-268.55" y1="377.95" x2="-267.38" y2="377.95" gradientTransform="matrix(1.4, 73, 73, -1.4, -27073.48, 20130.04)" gradientUnits="userSpaceOnUse"><stop offset="0" stop-color="#6d479c"/><stop offset="0.3" stop-color="#ba1d7b"/><stop offset="0.65" stop-color="#ba1d7b"/><stop offset="1" stop-color="#de943e"/></linearGradient><clipPath id="clip-path-2"><path class="cls-1" d="M152.39,91.37c-8.66.34-13.46,8.83-15,12.89h0c.54-3.79,2.55-8.15,4.5-10h0A2.9,2.9,0,0,0,139,91.59a3,3,0,0,0-2.74,3.15s0,12.41,0,15h0s0,.38.05.56a2.88,2.88,0,0,0,2.76,2.49,2.92,2.92,0,0,0,2.8-3v-4.56a11.58,11.58,0,0,1,7.26,5.68,3.2,3.2,0,0,0,2.73,1.85,3.12,3.12,0,0,0,3-3.25c-.05-3.54-7.64-9.13-13.76-4.45a11.46,11.46,0,0,0-2,1.85c.3-.62,3.7-7.3,13.89-9.06h0a3.29,3.29,0,0,0-.54-6.5h-.12"/></clipPath><linearGradient id="linear-gradient-2" x1="-270.16" y1="383.55" x2="-268.97" y2="383.55" gradientTransform="matrix(-11.34, 18.75, 18.75, 11.34, -10101.63, 807.48)" xlink:href="#linear-gradient"/></defs><title>Asset 1</title><g id="Layer_2" data-name="Layer 2"><g id="Layer_1-2" data-name="Layer 1"><path class="cls-2" d="M54.75,62.67a70.37,70.37,0,0,1,.6,8.66,75,75,0,0,1-.47,9.09,65,65,0,0,1-1.67,9,47.66,47.66,0,0,1-2.94,8.26,35.5,35.5,0,0,1-4.31,7,22.38,22.38,0,0,1-5.8,5.21,21.9,21.9,0,0,1-7.35,2.84,24.46,24.46,0,0,1-9-.1,23.88,23.88,0,0,1-8.33-3,26.94,26.94,0,0,1-6.38-5.26,30.52,30.52,0,0,1-4.59-6.87,42.35,42.35,0,0,1-2.92-7.87A46.72,46.72,0,0,1,.16,81.45a46.11,46.11,0,0,1,0-7.89,34.74,34.74,0,0,1,2.18-9.64,31,31,0,0,1,4.2-7.59,23.3,23.3,0,0,1,5.52-5.25A17.65,17.65,0,0,1,18.2,48.4a12.7,12.7,0,0,1,6,.14,11,11,0,0,1,5.23,3.24,14,14,0,0,1,3.23,5.61,22.63,22.63,0,0,1,1,6.5A24.44,24.44,0,0,1,33,70.14a15.62,15.62,0,0,1-2,4.79,4.64,4.64,0,0,1-2.77,2.16c-1,.21-2-.32-3.05-1.6C24,74,23,73.21,22.1,73.07a2.22,2.22,0,0,0-2.25,1,8.17,8.17,0,0,0-1.28,3.45,17.82,17.82,0,0,0-.11,4.93,24,24,0,0,0,1.26,5.44,16.39,16.39,0,0,0,2.77,5,13.38,13.38,0,0,0,4.45,3.54,12.39,12.39,0,0,0,6.34,1.15,8.65,8.65,0,0,0,4.44-1.64,9.89,9.89,0,0,0,2.85-3.4,15.85,15.85,0,0,0,1.52-4.63,31.21,31.21,0,0,0,.45-5.37,45.14,45.14,0,0,0-.34-5.57c-.23-1.84-.52-3.59-.87-5.23s-.71-3.11-1.1-4.41a25.49,25.49,0,0,0-1.1-3.08,13.21,13.21,0,0,1-1.28-5,13.41,13.41,0,0,1,.52-4.51,10.28,10.28,0,0,1,1.86-3.57A7.46,7.46,0,0,1,43,49a5.59,5.59,0,0,1,3.27-.4,6.24,6.24,0,0,1,3.33,1.85,15.43,15.43,0,0,1,3,4.56,31.88,31.88,0,0,1,2.19,7.67M23.68,33.75a9.79,9.79,0,0,1,2.46-6.5,8.5,8.5,0,0,1,2.66-2,7.82,7.82,0,0,1,6.6,0,8.71,8.71,0,0,1,2.71,2,9.6,9.6,0,0,1,1.82,2.93,9.76,9.76,0,0,1,.67,3.57,9.63,9.63,0,0,1-.67,3.59,9.17,9.17,0,0,1-1.82,2.89,8.65,8.65,0,0,1-2.71,2,7.82,7.82,0,0,1-6.6,0,8.44,8.44,0,0,1-2.66-2,9.1,9.1,0,0,1-1.79-2.89,9.44,9.44,0,0,1-.67-3.59"/><path class="cls-2" d="M103.24,82.29l-.07-.08a17,17,0,0,1-1.2-1.76l0,0a17,17,0,0,1-2.24-6.84,17.22,17.22,0,0,1-.1-1.83V69.65c-8.36.12-22.85-1-25-10-1.47-6.07-.8-14.69,2.9-26.15s4.34-20.17,1.86-26.15q-2.52-6.19-7.92-5.82-5.32,0-9.09,8.12t-3.63,31.5c.92,15,3.64,26.76,8.91,33.17,9.28,11.3,36.67,9.14,36.67,9.14s-.89-1-1-1.13"/><path class="cls-2" d="M244.1,66a36,36,0,0,0-1.69-6.15,41.79,41.79,0,0,0-6.47-11.41,34.57,34.57,0,0,0-4.39-4.56,25.17,25.17,0,0,0-5-3.33,18.33,18.33,0,0,0-8.09-2.28,10.44,10.44,0,0,0-6.28,2.07,17.87,17.87,0,0,0-4.89,5.94,55.2,55.2,0,0,0-3.87,9.34q-.78,2.4-1.65,4.74a24.19,24.19,0,0,1-2.1,4.3A9.37,9.37,0,0,1,196.75,68a21.41,21.41,0,0,1-18.14,1.85c0,.49.07,1,.07,1.47a17.52,17.52,0,0,1-4.69,12c9.06-.54,19.93.77,26.92-4.46,3.84-2.86,4.45-6.58,5.65-10a23.2,23.2,0,0,0,2.36,7.86,26.61,26.61,0,0,0,4.5,6.36,24.46,24.46,0,0,0,5.89,4.56,21.45,21.45,0,0,0,6.58,2.39,17.17,17.17,0,0,0,6.55,0,12.94,12.94,0,0,0,5.79-2.8,16,16,0,0,0,4.26-5.89,26.65,26.65,0,0,0,2-9.29,27.56,27.56,0,0,0-.43-6m-16.37,1.31A3.74,3.74,0,0,1,226,69.23a4.5,4.5,0,0,1-2.64.44,6.63,6.63,0,0,1-3-1.22,10.13,10.13,0,0,1-2.85-3.12,14.09,14.09,0,0,1-1.31-2.7,17.91,17.91,0,0,1-.79-3,16.91,16.91,0,0,1-.26-2.87,10.73,10.73,0,0,1,.26-2.46,7.54,7.54,0,0,1,3.41-.07,10.5,10.5,0,0,1,3.32,1.29A13.38,13.38,0,0,1,225,57.89a12.52,12.52,0,0,1,2.14,3,9.5,9.5,0,0,1,1,3.29,6.15,6.15,0,0,1-.45,3.19"/><path class="cls-2" d="M255.8,62.06q-1.52-4.08-2.4-7.25a26.73,26.73,0,0,1-1-5.45A7.35,7.35,0,0,1,253,45.7a3.71,3.71,0,0,1,2.38-1.9,5.47,5.47,0,0,1,3.39,0,6.22,6.22,0,0,1,2.95,2.37,20.21,20.21,0,0,1,2.53,5.17,66.84,66.84,0,0,1,2.21,8.28c.17.85.41,2.06.73,3.64s.64,3.42.95,5.52.61,4.37.87,6.83.42,5,.48,7.58a77.38,77.38,0,0,1-.24,7.77,40.55,40.55,0,0,1-1.28,7.35,26.48,26.48,0,0,1-2.66,6.38,16.32,16.32,0,0,1-4.35,4.88,17.62,17.62,0,0,1-5.26,2.8,15.66,15.66,0,0,1-5,.77,13.86,13.86,0,0,1-4.56-.84,15.44,15.44,0,0,1-3.88-2.07,13.9,13.9,0,0,1-2.9-2.88,11,11,0,0,1-1.7-3.32,12.34,12.34,0,0,1-.5-5.44A9.26,9.26,0,0,1,239,94a9.4,9.4,0,0,1,4.15-2.93,13,13,0,0,1,6.28-.54,5.47,5.47,0,0,0,4.46-1.62,12.28,12.28,0,0,0,3.2-5.63,29.18,29.18,0,0,0,1-9.13,45.09,45.09,0,0,0-2.23-12.07m-8.61-33.28a8.22,8.22,0,0,1,.59-3.1,8.13,8.13,0,0,1,1.58-2.54,7.44,7.44,0,0,1,2.33-1.71,6.71,6.71,0,0,1,5.72,0,7.44,7.44,0,0,1,2.33,1.71,8.13,8.13,0,0,1,1.58,2.54,8.41,8.41,0,0,1,0,6.19,8.13,8.13,0,0,1-1.58,2.54,7.44,7.44,0,0,1-2.33,1.71,6.71,6.71,0,0,1-5.72,0,7.44,7.44,0,0,1-2.33-1.71,8.39,8.39,0,0,1-2.17-5.63"/><g class="cls-3"><polygon class="cls-4" points="177.74 0 179.22 83.48 103.37 85.06 101.89 1.58 177.74 0"/></g><path class="cls-2" d="M93.78,107.29H90.29c-.07,0-.1,0-.11,0a.48.48,0,0,1,0-.16L95.8,96a4.22,4.22,0,0,0,.53-2,2.3,2.3,0,0,0-2.55-2.5h-7.3a2.55,2.55,0,0,0-2.85,2.64,2.61,2.61,0,0,0,2.85,2.71h3a.35.35,0,0,1,.14,0,.23.23,0,0,1,0,.14l-5.6,11.25a4.55,4.55,0,0,0-.49,2c0,.92.35,2.46,2.76,2.46h7.57a2.69,2.69,0,1,0,0-5.37"/><path class="cls-2" d="M108.47,94.25c-.52-1.89-1.73-2.94-3.4-2.94s-2.88,1-3.4,2.94l-4,14.57a5.71,5.71,0,0,0-.26,1.46,2.38,2.38,0,0,0,2.63,2.56c1.5,0,2-.79,2.53-2.25.49-1.69.62-1.86.82-1.86h3.41c.2,0,.31.07.83,1.87.39,1.18.88,2.24,2.56,2.24a2.37,2.37,0,0,0,2.6-2.5,4.93,4.93,0,0,0-.26-1.5Zm-2.19,10.12h-2.44a.23.23,0,0,1,0-.07l1.22-5.61,1.2,5.67h0"/><path class="cls-2" d="M132.81,95c-.24-2.36-1.5-3.67-3.55-3.67a3.28,3.28,0,0,0-3.37,3l-1.79,7.52-1.77-7.54c-.41-2-1.53-3-3.35-3-2.07,0-3.34,1.31-3.57,3.67l-1.65,14.38a3.54,3.54,0,0,0,.6,2.69,2.39,2.39,0,0,0,2,.82c1.08,0,2.4-.56,2.59-3l.84-8.12,1.9,8.36c.36,1.8,1.2,2.72,2.51,2.72.93,0,2.11-.48,2.48-2.72l1.81-8.32.91,8.07c.18,1.92,1.12,3,2.64,3h.07a2.34,2.34,0,0,0,1.85-.8,3.54,3.54,0,0,0,.6-2.71Z"/><path class="cls-2" d="M167.08,94.25c-.52-1.89-1.73-2.94-3.4-2.94s-2.87,1-3.4,2.94l-4,14.57a5.71,5.71,0,0,0-.26,1.46,2.39,2.39,0,0,0,2.63,2.56c1.5,0,2-.79,2.53-2.25.49-1.69.62-1.86.83-1.86h3.41c.2,0,.3.07.83,1.87.38,1.18.87,2.24,2.55,2.24a2.37,2.37,0,0,0,2.6-2.5,4.65,4.65,0,0,0-.26-1.5Zm-2.19,10.12h-2.43a.08.08,0,0,1,0-.07l1.22-5.61,1.21,5.67h0"/><path class="cls-2" d="M184.47,91.28c-1.64,0-2.66,1.15-2.66,3V101l-3.56-7.53a2.89,2.89,0,0,0-2.77-2.17c-1.67,0-2.71,1.16-2.71,3v15.53c0,1.85,1,3,2.66,3s2.62-1.15,2.62-3v-7l3.71,7.7c.64,1.51,1.55,2.25,2.79,2.25,1.57,0,2.54-1.18,2.54-3.09V94.28c0-1.85-1-3-2.62-3"/><g class="cls-5"><polygon class="cls-6" points="164.46 97.1 150.51 122.13 127.52 107.06 141.47 82.02 164.46 97.1"/></g></g></g></svg>